<svg id="Layer_1" data-name="Layer 1" xmlns="http://www.w3.org/2000/svg" width="24.48" height="22.98" viewBox="0 0 24.48 22.98">
  <defs>
    <style>
      .cls-1 {
        fill: #fff;
      }
    </style>
  </defs>
  <title>icon-snapchat</title>
  <path class="cls-1" d="M12.53,23H12.22a5.36,5.36,0,0,1-3.28-1.29,4.79,4.79,0,0,0-1.9-1,6.13,6.13,0,0,0-1-.08,6.82,6.82,0,0,0-1.38.16,3,3,0,0,1-.52.07,0.32,0.32,0,0,1-.36-0.26c-0.06-.2-0.1-0.38-0.14-0.57a0.91,0.91,0,0,0-.37-0.79c-2.3-.36-3-0.84-3.11-1.18a0.44,0.44,0,0,1,0-.15,0.26,0.26,0,0,1,.22-0.27c3.54-.58,5.12-4.2,5.19-4.35h0a1.35,1.35,0,0,0,.13-1.13,2.39,2.39,0,0,0-1.56-1L3.77,11c-1-.41-1.13-0.84-1.09-1.05a1,1,0,0,1,1-.63,0.67,0.67,0,0,1,.29.06,3,3,0,0,0,1.26.33,1,1,0,0,0,.75-0.24c0-.24,0-0.49,0-0.75C5.79,7.1,5.66,5,6.18,3.84A6.4,6.4,0,0,1,12.12,0h0.49a6.41,6.41,0,0,1,6,3.83C19.1,5,19,7.1,18.86,8.77V8.84c0,0.23,0,.46,0,0.68a1,1,0,0,0,.69.24h0a3.15,3.15,0,0,0,1.19-.33,0.9,0.9,0,0,1,.37-0.07,1.13,1.13,0,0,1,.42.08h0a0.78,0.78,0,0,1,.59.63c0,0.24-.18.61-1.1,1l-0.35.12a2.39,2.39,0,0,0-1.56,1,1.35,1.35,0,0,0,.13,1.13h0c0.07,0.15,1.65,3.77,5.19,4.35a0.26,0.26,0,0,1,.22.27,0.44,0.44,0,0,1,0,.15c-0.15.34-.8,0.83-3.11,1.18a0.87,0.87,0,0,0-.37.79c0,0.19-.08.37-0.14,0.56a0.31,0.31,0,0,1-.33.25h0a2.88,2.88,0,0,1-.51-0.06,6.87,6.87,0,0,0-1.38-.15,6.14,6.14,0,0,0-1,.08,4.78,4.78,0,0,0-1.9,1A5.36,5.36,0,0,1,12.53,23Z" transform="translate(-0.13)"/>
</svg>
